<?xml version="1.0" standalone="no"?>
<!DOCTYPE svg PUBLIC "-//W3C//DTD SVG 20010904//EN"
 "http://www.w3.org/TR/2001/REC-SVG-20010904/DTD/svg10.dtd">
<svg version="1.0" xmlns="http://www.w3.org/2000/svg"
 width="596.000000pt" height="596.000000pt" viewBox="0 0 596.000000 596.000000"
 preserveAspectRatio="xMidYMid meet">
<metadata>
Created by potrace 1.11, written by Peter Selinger 2001-2013
</metadata>
<g transform="translate(0.000000,596.000000) scale(0.100000,-0.100000)"
fill="#000000" stroke="none">
<path d="M723 5223 c2 -13 1 -23 -3 -23 -5 0 -6 -9 -3 -20 3 -11 10 -17 17
-14 6 3 4 0 -4 -8 -16 -14 -22 -138 -7 -138 5 0 5 -5 1 -11 -3 -6 -6 -66 -6
-134 0 -68 3 -128 6 -134 4 -6 4 -11 -1 -11 -4 0 -8 -18 -8 -40 0 -22 3 -40 7
-40 4 0 3 -12 0 -27 -9 -34 -8 -76 2 -92 4 -6 4 -11 -1 -11 -7 0 -7 -169 0
-177 4 -4 37 -4 103 -2 28 1 56 -1 62 -5 7 -4 12 -4 12 1 0 4 162 7 360 5
l360 -2 0 -51 c0 -37 3 -48 13 -43 10 6 10 4 0 -7 -7 -7 -13 -37 -13 -67 0
-40 3 -51 13 -46 9 6 9 4 1 -7 -17 -21 -18 -442 -1 -432 9 5 9 3 1 -8 -17 -20
-18 -122 -1 -113 9 6 9 5 0 -7 -14 -18 -15 -116 -1 -125 7 -4 8 -2 4 4 -4 7
-2 12 3 12 6 0 11 -4 11 -9 0 -11 53 -8 63 4 4 6 10 5 16 -3 11 -19 15 -19 34
-3 10 7 17 9 17 5 0 -5 24 -9 54 -9 30 0 52 4 48 9 -3 5 1 6 8 1 19 -12 54
-12 63 0 5 7 9 7 15 0 9 -14 55 -13 65 0 4 7 10 7 15 0 8 -12 22 -13 40 -2 6
5 12 4 12 0 0 -5 24 -8 54 -8 30 0 52 4 49 8 -3 5 4 4 16 -2 16 -9 21 -9 21 1
0 8 3 9 8 3 4 -6 16 -11 27 -10 19 0 20 -6 20 -113 l-1 -112 113 0 c62 0 114
-3 115 -7 0 -5 2 -105 3 -223 l2 -215 -116 -5 -116 -5 -1 -100 c-1 -55 -2
-105 -3 -112 -1 -8 -87 -12 -333 -12 l-333 0 -2 -106 c-1 -79 1 -104 10 -99 8
5 8 3 -1 -7 -17 -18 -17 -123 1 -113 9 6 9 5 0 -7 -16 -20 -16 -122 0 -112 9
5 9 3 1 -8 -17 -20 -18 -122 -1 -113 9 6 9 5 0 -7 -16 -20 -16 -122 0 -112 9
5 9 3 0 -8 -6 -8 -11 -37 -11 -66 -1 -44 2 -51 16 -47 15 5 15 4 -1 -6 -12 -8
-17 -22 -15 -45 1 -19 -1 -37 -4 -40 -3 -3 -206 -6 -452 -5 -417 0 -446 -1
-447 -18 -1 -9 0 -21 1 -27 1 -5 2 -17 1 -25 -3 -54 -1 -172 4 -180 3 -6 2
-10 -4 -10 -6 0 -6 -11 -1 -30 5 -16 6 -30 2 -30 -4 0 -7 -29 -7 -65 0 -36 4
-65 8 -65 5 0 5 -5 1 -11 -8 -14 -8 -254 0 -268 4 -6 4 -11 -1 -11 -4 0 -8
-18 -8 -40 0 -22 3 -40 7 -40 4 0 3 -12 -1 -27 -14 -47 -2 -58 61 -59 38 -1
55 2 51 9 -4 6 -1 7 8 1 8 -5 186 -9 396 -9 l382 0 3 93 c2 52 0 96 -5 99 -4
2 -4 9 -1 15 5 8 8 212 3 228 -1 3 0 10 1 15 2 11 2 217 -1 225 -1 3 0 10 1
15 4 22 2 133 -3 142 -3 5 -2 15 2 22 5 7 6 22 4 32 -5 17 9 18 306 18 171 0
315 2 321 6 5 3 10 3 10 -2 0 -4 30 -7 67 -6 38 1 99 2 136 2 l68 1 -3 28 c-1
15 -7 30 -13 34 -6 5 -6 8 2 8 15 0 15 70 0 70 -9 0 -9 2 0 8 15 9 14 72 -1
72 -7 0 -7 3 -1 8 6 4 11 24 13 45 2 30 0 37 -10 31 -10 -6 -11 -5 -1 7 10 12
10 18 0 29 -6 7 -7 10 -1 7 7 -4 11 5 12 24 0 19 -3 27 -10 23 -7 -5 -8 -2 -2
7 14 22 14 150 1 142 -9 -5 -9 -3 -1 8 7 8 12 28 12 44 0 82 -11 75 115 75
l113 0 -1 102 c-1 57 1 109 3 115 3 10 57 13 223 13 l219 0 0 -115 0 -115 115
0 114 0 0 -331 c0 -182 2 -333 4 -336 7 -7 726 -5 737 2 6 3 10 3 10 -2 0 -4
35 -8 77 -8 76 0 77 0 77 -25 0 -14 5 -28 10 -32 8 -5 8 -8 0 -8 -7 0 -11 -68
-10 -220 0 -173 3 -220 13 -216 7 3 15 1 18 -5 4 -5 3 -9 -2 -8 -28 5 -30 -6
-29 -191 0 -121 4 -191 11 -193 9 -3 873 -1 885 2 3 0 5 203 5 451 l0 450
-180 -1 c-99 0 -302 0 -451 1 l-271 0 1 450 c1 294 -2 450 -9 450 -5 0 -156 2
-335 3 l-325 2 -3 113 -3 112 -114 0 -115 0 0 78 c-1 115 -1 345 0 360 0 9 30
12 115 12 l115 0 0 106 c0 90 3 109 17 120 13 9 22 9 30 2 9 -7 17 -7 28 2 8
7 15 9 15 4 0 -12 91 -11 109 0 11 7 12 6 6 -5 -8 -12 -6 -12 8 0 10 7 17 9
17 3 0 -11 25 -10 36 1 4 4 13 2 21 -4 10 -9 17 -8 28 1 8 7 15 9 15 4 0 -5
42 -9 94 -9 60 0 92 4 88 10 -3 6 2 4 11 -4 14 -11 20 -11 32 -1 8 7 15 9 15
4 0 -11 93 -13 100 -3 3 4 5 206 4 448 l-1 441 23 6 c13 3 29 4 36 1 7 -2 21
0 30 4 9 5 19 6 21 2 3 -5 89 -6 192 -3 105 3 190 1 195 -4 6 -6 15 -5 23 2 8
7 16 9 19 6 8 -8 223 -8 236 0 6 3 13 3 15 -1 3 -5 29 -7 59 -5 l53 4 0 451 0
452 -37 0 c-20 0 -34 -4 -31 -9 4 -5 0 -6 -8 0 -19 12 -52 12 -61 -1 -5 -7 -8
-7 -8 1 0 12 -89 13 -109 0 -11 -7 -12 -6 -6 5 8 12 6 12 -8 0 -9 -7 -17 -9
-17 -4 0 5 -7 10 -15 10 -8 0 -15 -5 -15 -11 0 -7 -3 -8 -8 -1 -4 6 -20 11
-37 11 -16 0 -33 -5 -37 -11 -5 -7 -8 -6 -8 1 0 14 -52 13 -62 -1 -5 -6 -8 -5
-8 4 0 11 -3 11 -17 0 -9 -8 -14 -9 -10 -2 8 12 -10 12 -30 0 -7 -5 -13 -4
-13 2 0 10 -18 10 -37 -2 -6 -4 -15 -2 -19 4 -4 8 -9 7 -15 -2 -5 -8 -9 -9 -9
-3 0 12 -89 13 -109 0 -8 -6 -12 -5 -8 0 7 13 -66 12 -75 -1 -5 -7 -8 -6 -8 1
0 8 -33 11 -70 5 -3 -1 -6 -64 -6 -141 0 -109 3 -139 13 -136 7 3 15 1 18 -5
4 -5 3 -9 -2 -8 -26 5 -31 -4 -31 -56 1 -47 4 -55 17 -50 15 5 15 4 0 -7 -21
-17 -24 -202 -3 -194 7 3 16 1 19 -5 4 -5 3 -9 -2 -8 -26 4 -31 -5 -31 -61 0
-33 5 -63 10 -66 5 -4 5 -10 0 -17 -5 -7 -9 -42 -8 -80 1 -61 -1 -67 -19 -67
-12 0 -27 -6 -34 -12 -9 -9 -12 -9 -7 -1 8 15 -173 15 -193 -1 -11 -8 -13 -8
-7 1 9 17 -93 16 -113 -1 -11 -8 -13 -8 -8 1 10 16 -92 16 -112 0 -12 -9 -13
-9 -7 0 9 17 -93 16 -113 -1 -11 -8 -13 -8 -8 1 10 16 -92 16 -112 0 -11 -9
-13 -9 -8 0 5 8 -15 11 -78 11 l-85 0 0 -67 c0 -36 -1 -153 -3 -259 -1 -105 0
-192 3 -192 3 0 4 -34 2 -75 l-4 -75 -114 0 -114 0 0 -117 0 -118 -214 0
c-118 0 -218 4 -223 9 -4 4 -8 56 -8 114 l0 107 -112 3 c-106 2 -113 4 -113
23 0 13 -4 18 -12 13 -7 -5 -8 -3 -2 7 14 22 14 150 1 142 -8 -5 -8 -2 0 8 10
12 10 18 0 29 -6 7 -7 10 -1 7 7 -4 11 5 12 24 0 19 -3 27 -10 23 -7 -5 -8 -2
-2 7 14 22 14 150 1 142 -9 -5 -9 -3 -1 8 15 19 15 149 0 149 -7 0 -6 4 2 9
17 11 17 21 0 32 -10 7 -10 9 0 9 6 0 12 9 12 19 0 18 -11 19 -197 19 -136 0
-203 -3 -212 -11 -11 -9 -13 -9 -8 0 10 16 -92 16 -112 0 -12 -9 -13 -9 -7 1
5 9 -6 12 -46 12 -30 0 -60 -6 -67 -12 -10 -9 -12 -9 -7 -1 9 16 -93 16 -113
0 -11 -9 -13 -9 -8 0 6 9 -9 12 -59 12 -36 -1 -71 4 -77 10 -6 6 -7 11 -1 11
9 0 10 259 1 285 -3 7 -3 16 0 19 6 5 7 75 3 94 -1 4 -1 12 0 17 2 11 2 217
-1 225 -1 3 0 10 1 15 2 8 2 195 0 229 0 5 -7 3 -15 -4 -8 -7 -15 -8 -15 -3 0
5 -7 10 -15 10 -8 0 -15 -5 -15 -11 0 -7 -3 -8 -8 -1 -4 6 -20 11 -37 11 -16
0 -33 -5 -37 -11 -5 -7 -8 -7 -8 1 0 13 -80 13 -80 -1 0 -6 -3 -7 -8 0 -9 13
-115 14 -124 0 -5 -7 -8 -7 -8 1 0 12 -89 13 -109 0 -11 -7 -12 -6 -6 5 8 12
6 12 -8 0 -9 -7 -17 -9 -17 -4 0 5 -7 10 -15 10 -8 0 -15 -5 -15 -11 0 -7 -3
-8 -8 -1 -4 6 -20 11 -37 11 -16 0 -33 -5 -37 -11 -5 -7 -8 -7 -8 0 0 14 -150
14 -150 0 0 -6 -3 -6 -8 0 -4 6 -16 11 -27 11 -11 0 -23 -5 -27 -11 -5 -7 -8
-7 -8 1 0 5 -12 10 -26 10 -21 0 -25 -4 -21 -23z m207 -23 c0 -5 -5 -10 -11
-10 -5 0 -7 5 -4 10 3 6 8 10 11 10 2 0 4 -4 4 -10z m400 0 c0 -5 -5 -10 -11
-10 -5 0 -7 5 -4 10 3 6 8 10 11 10 2 0 4 -4 4 -10z m-95 -39 c-9 -8 -36 -10
-30 -2 2 4 11 8 20 8 8 0 13 -3 10 -6z m3365 3 c0 -8 -19 -13 -24 -6 -3 5 1 9
9 9 8 0 15 -2 15 -3z m475 -3 c-9 -8 -36 -10 -30 -2 2 4 11 8 20 8 8 0 13 -3
10 -6z m-3985 -41 c0 -5 -5 -10 -11 -10 -5 0 -7 5 -4 10 3 6 8 10 11 10 2 0 4
-4 4 -10z m3840 0 c0 -5 -5 -10 -11 -10 -5 0 -7 5 -4 10 3 6 8 10 11 10 2 0 4
-4 4 -10z m-3483 -15 c0 -8 -4 -12 -9 -9 -5 3 -6 10 -3 15 9 13 12 11 12 -6z
m3038 -25 c3 -5 1 -10 -4 -10 -6 0 -11 5 -11 10 0 6 2 10 4 10 3 0 8 -4 11
-10z m-2915 -40 c0 -5 -2 -10 -4 -10 -3 0 -8 5 -11 10 -3 6 -1 10 4 10 6 0 11
-4 11 -10z m3120 6 c0 -3 -4 -8 -10 -11 -5 -3 -10 -1 -10 4 0 6 5 11 10 11 6
0 10 -2 10 -4z m-3923 -91 c0 -8 -4 -12 -9 -9 -5 3 -6 10 -3 15 9 13 12 11 12
-6z m803 5 c0 -5 -5 -10 -11 -10 -5 0 -7 5 -4 10 3 6 8 10 11 10 2 0 4 -4 4
-10z m2955 0 c3 -5 1 -10 -4 -10 -6 0 -11 5 -11 10 0 6 2 10 4 10 3 0 8 -4 11
-10z m82 -5 c0 -8 -4 -12 -9 -9 -5 3 -6 10 -3 15 9 13 12 11 12 -6z m-3722
-34 c3 -5 2 -12 -3 -15 -5 -3 -9 1 -9 9 0 17 3 19 12 6z m3840 0 c3 -5 2 -12
-3 -15 -5 -3 -9 1 -9 9 0 17 3 19 12 6z m-3278 -26 c0 -8 -4 -12 -9 -9 -5 3
-6 10 -3 15 9 13 12 11 12 -6z m-282 -15 c3 -5 1 -10 -4 -10 -6 0 -11 5 -11
10 0 6 2 10 4 10 3 0 8 -4 11 -10z m85 4 c0 -8 -19 -13 -24 -6 -3 5 1 9 9 9 8
0 15 -2 15 -3z m3755 -4 c3 -5 1 -10 -4 -10 -6 0 -11 5 -11 10 0 6 2 10 4 10
3 0 8 -4 11 -10z m85 4 c0 -8 -19 -13 -24 -6 -3 5 1 9 9 9 8 0 15 -2 15 -3z
m-4125 -63 c3 -5 2 -12 -3 -15 -5 -3 -9 1 -9 9 0 17 3 19 12 6z m3840 0 c3 -5
2 -12 -3 -15 -5 -3 -9 1 -9 9 0 17 3 19 12 6z m-4040 -21 c3 -5 1 -10 -4 -10
-6 0 -11 5 -11 10 0 6 2 10 4 10 3 0 8 -4 11 -10z m565 0 c0 -5 -2 -10 -4 -10
-3 0 -8 5 -11 10 -3 6 -1 10 4 10 6 0 11 -4 11 -10z m3155 -9 c3 -5 2 -12 -3
-15 -5 -3 -9 1 -9 9 0 17 3 19 12 6z m-3555 -71 c0 -5 -5 -10 -11 -10 -5 0 -7
5 -4 10 3 6 8 10 11 10 2 0 4 -4 4 -10z m3435 0 c3 -5 1 -10 -4 -10 -6 0 -11
5 -11 10 0 6 2 10 4 10 3 0 8 -4 11 -10z m405 0 c0 -5 -5 -10 -11 -10 -5 0 -7
5 -4 10 3 6 8 10 11 10 2 0 4 -4 4 -10z m-3650 -36 c0 -8 -19 -13 -24 -6 -3 5
1 9 9 9 8 0 15 -2 15 -3z m205 -33 c3 -5 2 -12 -3 -15 -5 -3 -9 1 -9 9 0 17 3
19 12 6z m80 -11 c3 -5 1 -10 -4 -10 -6 0 -11 5 -11 10 0 6 2 10 4 10 3 0 8
-4 11 -10z m3285 0 c0 -5 -2 -10 -4 -10 -3 0 -8 5 -11 10 -3 6 -1 10 4 10 6 0
11 -4 11 -10z m-3640 -36 c0 -8 -19 -13 -24 -6 -3 5 1 9 9 9 8 0 15 -2 15 -3z
m-205 -33 c3 -5 2 -12 -3 -15 -5 -3 -9 1 -9 9 0 17 3 19 12 6z m85 -11 c0 -5
-2 -10 -4 -10 -3 0 -8 5 -11 10 -3 6 -1 10 4 10 6 0 11 -4 11 -10z m4080 0 c0
-5 -5 -10 -11 -10 -5 0 -7 5 -4 10 3 6 8 10 11 10 2 0 4 -4 4 -10z m-3723 -15
c0 -8 -4 -12 -9 -9 -5 3 -6 10 -3 15 9 13 12 11 12 -6z m187 -23 c3 -5 -1 -9
-9 -9 -8 0 -12 4 -9 9 3 4 7 8 9 8 2 0 6 -4 9 -8z m3150 0 c3 -5 -1 -9 -9 -9
-8 0 -12 4 -9 9 3 4 7 8 9 8 2 0 6 -4 9 -8z m383 -37 c0 -8 -4 -12 -9 -9 -5 3
-6 10 -3 15 9 13 12 11 12 -6z m-3917 -5 c0 -5 -5 -10 -11 -10 -5 0 -7 5 -4
10 3 6 8 10 11 10 2 0 4 -4 4 -10z m3440 6 c0 -3 -4 -8 -10 -11 -5 -3 -10 -1
-10 4 0 6 5 11 10 11 6 0 10 -2 10 -4z m197 -41 c0 -8 -4 -12 -9 -9 -5 3 -6
10 -3 15 9 13 12 11 12 -6z m-200 -40 c0 -8 -4 -12 -9 -9 -5 3 -6 10 -3 15 9
13 12 11 12 -6z m-2957 1 c0 -3 -4 -8 -10 -11 -5 -3 -10 -1 -10 4 0 6 5 11 10
11 6 0 10 -2 10 -4z m2795 -6 c3 -5 1 -10 -4 -10 -6 0 -11 5 -11 10 0 6 2 10
4 10 3 0 8 -4 11 -10z m-2355 -120 c0 -5 -2 -10 -4 -10 -3 0 -8 5 -11 10 -3 6
-1 10 4 10 6 0 11 -4 11 -10z m195 -29 c3 -5 2 -12 -3 -15 -5 -3 -9 1 -9 9 0
17 3 19 12 6z m1600 0 c3 -5 2 -12 -3 -15 -5 -3 -9 1 -9 9 0 17 3 19 12 6z
m-1998 -16 c0 -8 -4 -12 -9 -9 -5 3 -6 10 -3 15 9 13 12 11 12 -6z m1767 7 c3
-5 -1 -9 -9 -9 -8 0 -12 4 -9 9 3 4 7 8 9 8 2 0 6 -4 9 -8z m313 -7 c0 -8 -4
-12 -9 -9 -5 3 -6 10 -3 15 9 13 12 11 12 -6z m163 5 c0 -5 -5 -10 -11 -10 -5
0 -7 5 -4 10 3 6 8 10 11 10 2 0 4 -4 4 -10z m157 -5 c0 -8 -4 -12 -9 -9 -5 3
-6 10 -3 15 9 13 12 11 12 -6z m-2223 -33 c3 -5 -1 -9 -9 -9 -8 0 -12 4 -9 9
3 4 7 8 9 8 2 0 6 -4 9 -8z m263 -27 c0 -8 -4 -12 -9 -9 -5 3 -6 10 -3 15 9
13 12 11 12 -6z m-437 -15 c0 -5 -2 -10 -4 -10 -3 0 -8 5 -11 10 -3 6 -1 10 4
10 6 0 11 -4 11 -10z m2075 0 c3 -5 1 -10 -4 -10 -6 0 -11 5 -11 10 0 6 2 10
4 10 3 0 8 -4 11 -10z m320 0 c3 -5 1 -10 -4 -10 -6 0 -11 5 -11 10 0 6 2 10
4 10 3 0 8 -4 11 -10z m-2518 -45 c0 -8 -4 -12 -9 -9 -5 3 -6 10 -3 15 9 13
12 11 12 -6z m1933 9 c0 -8 -19 -13 -24 -6 -3 5 1 9 9 9 8 0 15 -2 15 -3z
m-1250 -40 c0 -8 -19 -13 -24 -6 -3 5 1 9 9 9 8 0 15 -2 15 -3z m-670 -40 c0
-8 -19 -13 -24 -6 -3 5 1 9 9 9 8 0 15 -2 15 -3z m785 -172 c-3 -3 -11 0 -18
7 -9 10 -8 11 6 5 10 -3 15 -9 12 -12z m1725 -26 c0 -3 -4 -8 -10 -11 -5 -3
-10 -1 -10 4 0 6 5 11 10 11 6 0 10 -2 10 -4z m-2510 -42 c0 -8 -19 -13 -24
-6 -3 5 1 9 9 9 8 0 15 -2 15 -3z m1870 -38 c0 -3 -4 -8 -10 -11 -5 -3 -10 -1
-10 4 0 6 5 11 10 11 6 0 10 -2 10 -4z m-1840 -162 c0 -8 -19 -13 -24 -6 -3 5
1 9 9 9 8 0 15 -2 15 -3z m2480 -4 c0 -5 -5 -10 -11 -10 -5 0 -7 5 -4 10 3 6
8 10 11 10 2 0 4 -4 4 -10z m-2480 -80 c0 -5 -2 -10 -4 -10 -3 0 -8 5 -11 10
-3 6 -1 10 4 10 6 0 11 -4 11 -10z m320 0 c0 -5 -2 -10 -4 -10 -3 0 -8 5 -11
10 -3 6 -1 10 4 10 6 0 11 -4 11 -10z m2080 6 c0 -3 -4 -8 -10 -11 -5 -3 -10
-1 -10 4 0 6 5 11 10 11 6 0 10 -2 10 -4z m-1280 -166 c0 -5 -2 -10 -4 -10 -3
0 -8 5 -11 10 -3 6 -1 10 4 10 6 0 11 -4 11 -10z m-245 -320 c3 -5 1 -10 -4
-10 -6 0 -11 5 -11 10 0 6 2 10 4 10 3 0 8 -4 11 -10z m82 -5 c0 -8 -4 -12 -9
-9 -5 3 -6 10 -3 15 9 13 12 11 12 -6z m478 -384 c3 -5 2 -12 -3 -15 -5 -3 -9
1 -9 9 0 17 3 19 12 6z m-277 -56 c-3 -3 -9 2 -12 12 -6 14 -5 15 5 6 7 -7 10
-15 7 -18z m-1205 -150 c-3 -9 -8 -14 -10 -11 -3 3 -2 9 2 15 9 16 15 13 8 -4z
m51 -43 c3 -5 -1 -9 -9 -9 -8 0 -12 4 -9 9 3 4 7 8 9 8 2 0 6 -4 9 -8z m76 -2
c0 -5 -2 -10 -4 -10 -3 0 -8 5 -11 10 -3 6 -1 10 4 10 6 0 11 -4 11 -10z
m2320 6 c0 -3 -4 -8 -10 -11 -5 -3 -10 -1 -10 4 0 6 5 11 10 11 6 0 10 -2 10
-4z m160 -86 c0 -5 -5 -10 -11 -10 -5 0 -7 5 -4 10 3 6 8 10 11 10 2 0 4 -4 4
-10z m-2603 -125 c0 -8 -4 -12 -9 -9 -5 3 -6 10 -3 15 9 13 12 11 12 -6z m43
-191 c0 -8 -19 -13 -24 -6 -3 5 1 9 9 9 8 0 15 -2 15 -3z m2560 -4 c0 -5 -5
-10 -11 -10 -5 0 -7 5 -4 10 3 6 8 10 11 10 2 0 4 -4 4 -10z m-1805 -48 c-3
-3 -11 0 -18 7 -9 10 -8 11 6 5 10 -3 15 -9 12 -12z m-751 -30 c3 -5 -1 -9 -9
-9 -8 0 -12 4 -9 9 3 4 7 8 9 8 2 0 6 -4 9 -8z m71 -2 c3 -5 1 -10 -4 -10 -6
0 -11 5 -11 10 0 6 2 10 4 10 3 0 8 -4 11 -10z m202 -115 c0 -8 -4 -12 -9 -9
-5 3 -6 10 -3 15 9 13 12 11 12 -6z m1920 0 c0 -8 -4 -12 -9 -9 -5 3 -6 10 -3
15 9 13 12 11 12 -6z m116 0 c-3 -9 -8 -14 -10 -11 -3 3 -2 9 2 15 9 16 15 13
8 -4z m-553 -39 c0 -3 -4 -8 -10 -11 -5 -3 -10 -1 -10 4 0 6 5 11 10 11 6 0
10 -2 10 -4z m160 0 c0 -3 -4 -8 -10 -11 -5 -3 -10 -1 -10 4 0 6 5 11 10 11 6
0 10 -2 10 -4z m-1247 -41 c-3 -9 -8 -14 -10 -11 -3 3 -2 9 2 15 9 16 15 13 8
-4z m-593 -39 c0 -3 -4 -8 -10 -11 -5 -3 -10 -1 -10 4 0 6 5 11 10 11 6 0 10
-2 10 -4z m320 -6 c0 -5 -2 -10 -4 -10 -3 0 -8 5 -11 10 -3 6 -1 10 4 10 6 0
11 -4 11 -10z m80 0 c0 -5 -5 -10 -11 -10 -5 0 -7 5 -4 10 3 6 8 10 11 10 2 0
4 -4 4 -10z m1275 0 c3 -5 1 -10 -4 -10 -6 0 -11 5 -11 10 0 6 2 10 4 10 3 0
8 -4 11 -10z m565 0 c0 -5 -2 -10 -4 -10 -3 0 -8 5 -11 10 -3 6 -1 10 4 10 6
0 11 -4 11 -10z m80 0 c0 -5 -5 -10 -11 -10 -5 0 -7 5 -4 10 3 6 8 10 11 10 2
0 4 -4 4 -10z m-3327 -115 c-3 -9 -8 -14 -10 -11 -3 3 -2 9 2 15 9 16 15 13 8
-4z m480 0 c-3 -9 -8 -14 -10 -11 -3 3 -2 9 2 15 9 16 15 13 8 -4z m3360 0
c-3 -9 -8 -14 -10 -11 -3 3 -2 9 2 15 9 16 15 13 8 -4z m-158 -14 c3 -5 2 -12
-3 -15 -5 -3 -9 1 -9 9 0 17 3 19 12 6z m-3605 -67 c0 -8 -19 -13 -24 -6 -3 5
1 9 9 9 8 0 15 -2 15 -3z m3840 0 c0 -8 -19 -13 -24 -6 -3 5 1 9 9 9 8 0 15
-2 15 -3z m-3955 -44 c3 -5 1 -10 -4 -10 -6 0 -11 5 -11 10 0 6 2 10 4 10 3 0
8 -4 11 -10z m485 4 c0 -8 -19 -13 -24 -6 -3 5 1 9 9 9 8 0 15 -2 15 -3z
m3840 0 c0 -8 -19 -13 -24 -6 -3 5 1 9 9 9 8 0 15 -2 15 -3z m-4043 -39 c0 -8
-4 -12 -9 -9 -5 3 -6 10 -3 15 9 13 12 11 12 -6z m3840 0 c0 -8 -4 -12 -9 -9
-5 3 -6 10 -3 15 9 13 12 11 12 -6z m-3957 -45 c0 -5 -5 -10 -11 -10 -5 0 -7
5 -4 10 3 6 8 10 11 10 2 0 4 -4 4 -10z m315 0 c3 -5 1 -10 -4 -10 -6 0 -11 5
-11 10 0 6 2 10 4 10 3 0 8 -4 11 -10z m85 0 c0 -5 -5 -10 -11 -10 -5 0 -7 5
-4 10 3 6 8 10 11 10 2 0 4 -4 4 -10z m3035 0 c3 -5 1 -10 -4 -10 -6 0 -11 5
-11 10 0 6 2 10 4 10 3 0 8 -4 11 -10z m160 0 c3 -5 1 -10 -4 -10 -6 0 -11 5
-11 10 0 6 2 10 4 10 3 0 8 -4 11 -10z m85 4 c0 -8 -19 -13 -24 -6 -3 5 1 9 9
9 8 0 15 -2 15 -3z m160 -4 c0 -5 -5 -10 -11 -10 -5 0 -7 5 -4 10 3 6 8 10 11
10 2 0 4 -4 4 -10z m315 0 c3 -5 1 -10 -4 -10 -6 0 -11 5 -11 10 0 6 2 10 4
10 3 0 8 -4 11 -10z m-3960 -89 c3 -5 2 -12 -3 -15 -5 -3 -9 1 -9 9 0 17 3 19
12 6z m322 -6 c0 -8 -4 -12 -9 -9 -5 3 -6 10 -3 15 9 13 12 11 12 -6z m3518 6
c3 -5 2 -12 -3 -15 -5 -3 -9 1 -9 9 0 17 3 19 12 6z m-3955 -65 c0 -3 -4 -8
-10 -11 -5 -3 -10 -1 -10 4 0 6 5 11 10 11 6 0 10 -2 10 -4z m560 -6 c0 -5 -2
-10 -4 -10 -3 0 -8 5 -11 10 -3 6 -1 10 4 10 6 0 11 -4 11 -10z m3280 6 c0 -3
-4 -8 -10 -11 -5 -3 -10 -1 -10 4 0 6 5 11 10 11 6 0 10 -2 10 -4z m-3560 -46
c0 -5 -4 -10 -10 -10 -5 0 -10 5 -10 10 0 6 5 10 10 10 6 0 10 -4 10 -10z
m3834 -6 c3 -8 2 -12 -4 -9 -6 3 -10 10 -10 16 0 14 7 11 14 -7z m-3554 -34
c0 -5 -5 -10 -11 -10 -5 0 -7 5 -4 10 3 6 8 10 11 10 2 0 4 -4 4 -10z m3274 2
c3 -5 -1 -9 -9 -9 -8 0 -12 4 -9 9 3 4 7 8 9 8 2 0 6 -4 9 -8z m-4038 -28 c1
-9 0 -13 -4 -10 -3 4 -7 14 -8 22 -1 9 0 13 4 10 3 -4 7 -14 8 -22z m3840 0
c1 -9 0 -13 -4 -10 -3 4 -7 14 -8 22 -1 9 0 13 4 10 3 -4 7 -14 8 -22z m-3199
-39 c0 -8 -4 -12 -9 -9 -5 3 -6 10 -3 15 9 13 12 11 12 -6z m-520 -90 c0 -8
-4 -12 -9 -9 -5 3 -6 10 -3 15 9 13 12 11 12 -6z m238 6 c3 -5 2 -12 -3 -15
-5 -3 -9 1 -9 9 0 17 3 19 12 6z m3602 -6 c0 -8 -4 -12 -9 -9 -5 3 -6 10 -3
15 9 13 12 11 12 -6z m238 6 c3 -5 2 -12 -3 -15 -5 -3 -9 1 -9 9 0 17 3 19 12
6z m-4240 -11 c3 -5 1 -10 -4 -10 -6 0 -11 5 -11 10 0 6 2 10 4 10 3 0 8 -4
11 -10z m85 0 c0 -5 -5 -10 -11 -10 -5 0 -7 5 -4 10 3 6 8 10 11 10 2 0 4 -4
4 -10z m395 0 c3 -5 1 -10 -4 -10 -6 0 -11 5 -11 10 0 6 2 10 4 10 3 0 8 -4
11 -10z m85 0 c0 -5 -2 -10 -4 -10 -3 0 -8 5 -11 10 -3 6 -1 10 4 10 6 0 11
-4 11 -10z m3200 0 c0 -5 -2 -10 -4 -10 -3 0 -8 5 -11 10 -3 6 -1 10 4 10 6 0
11 -4 11 -10z m160 0 c0 -5 -5 -10 -11 -10 -5 0 -7 5 -4 10 3 6 8 10 11 10 2
0 4 -4 4 -10z m395 0 c3 -5 1 -10 -4 -10 -6 0 -11 5 -11 10 0 6 2 10 4 10 3 0
8 -4 11 -10z m-720 -80 c3 -5 1 -10 -4 -10 -6 0 -11 5 -11 10 0 6 2 10 4 10 3
0 8 -4 11 -10z m-3181 -38 c3 -5 -1 -9 -9 -9 -8 0 -12 4 -9 9 3 4 7 8 9 8 2 0
6 -4 9 -8z m3840 0 c3 -5 -1 -9 -9 -9 -8 0 -12 4 -9 9 3 4 7 8 9 8 2 0 6 -4 9
-8z"/>
</g>
</svg>
