<svg id="Livello_1" data-name="Livello 1" xmlns="http://www.w3.org/2000/svg" viewBox="0 0 841.89 281.93"><defs><style>.cls-1{opacity:0.6;}.cls-2{fill:#edf2f4;}.cls-3{fill:#cc1236;}</style></defs><g class="cls-1"><rect class="cls-2" x="264.39" y="165.68" width="49.44" height="49.44"/><rect class="cls-2" x="264.39" y="66.8" width="49.44" height="49.44"/><rect class="cls-2" x="313.84" y="116.24" width="49.44" height="49.44"/><rect class="cls-2" x="214.95" y="215.13" width="49.44" height="49.44"/><rect class="cls-2" x="214.95" y="17.36" width="49.44" height="49.44"/><rect class="cls-2" x="363.28" y="165.68" width="49.44" height="49.44"/><rect class="cls-2" x="363.28" y="66.8" width="49.44" height="49.44"/><rect class="cls-2" x="412.72" y="215.13" width="49.44" height="49.44"/><rect class="cls-2" x="412.72" y="17.36" width="49.44" height="49.44"/></g><rect class="cls-3" x="301.37" y="153.36" width="24.79" height="24.79"/><rect class="cls-3" x="301.37" y="103.78" width="24.79" height="24.79"/><rect class="cls-3" x="326.16" y="128.57" width="24.79" height="24.79"/><rect class="cls-3" x="276.58" y="178.15" width="24.79" height="24.79"/><rect class="cls-3" x="276.58" y="78.99" width="24.79" height="24.79"/><rect class="cls-3" x="350.95" y="153.36" width="24.79" height="24.79"/><rect class="cls-3" x="350.95" y="103.78" width="24.79" height="24.79"/><rect class="cls-3" x="375.74" y="178.15" width="24.79" height="24.79"/><rect class="cls-3" x="375.74" y="78.99" width="24.79" height="24.79"/><path class="cls-2" d="M229.93,79h21.7v124h-21.7Z"/><path class="cls-2" d="M425.08,79h89.23V97.74H446.78V130.2h62.5v17.71h-62.5v36.28h68.75v18.75H425.08Z"/><path class="cls-2" d="M534.45,79h21.7v105.2h63v18.75H534.45Z"/><path class="cls-2" d="M648.33,161.62a27.71,27.71,0,0,0,2.43,12.15,22,22,0,0,0,6.77,8.25,28.59,28.59,0,0,0,10,4.69,48.35,48.35,0,0,0,12.23,1.47,39,39,0,0,0,12.16-1.65,24.47,24.47,0,0,0,8.16-4.25,15.36,15.36,0,0,0,4.51-6,17.81,17.81,0,0,0,1.39-6.85q0-7.12-3.21-10.51a18.38,18.38,0,0,0-7-4.77,147.81,147.81,0,0,0-15.37-4.6q-8.76-2.17-21.61-5.65a46.21,46.21,0,0,1-13.28-5.46,31.81,31.81,0,0,1-8.42-7.55,26.72,26.72,0,0,1-4.43-8.86,35.42,35.42,0,0,1-1.3-9.55,32.18,32.18,0,0,1,3.91-16.23,34.71,34.71,0,0,1,10.32-11.37,45.6,45.6,0,0,1,14.59-6.69A64.21,64.21,0,0,1,676.63,76,65.19,65.19,0,0,1,695,78.55a45.12,45.12,0,0,1,15.1,7.56,35.82,35.82,0,0,1,14.15,29.51H702.5q-.87-12-8.16-16.93t-18.58-5a40.71,40.71,0,0,0-7.81.78,24.69,24.69,0,0,0-7.29,2.61,15.91,15.91,0,0,0-5.47,5,13.32,13.32,0,0,0-2.17,7.81q0,6.6,4.08,10.33a26.36,26.36,0,0,0,10.68,5.64l5.47,1.48q4.77,1.29,10.67,2.86c3.94,1,7.78,2.06,11.55,3s6.45,1.71,8.07,2.17a36.1,36.1,0,0,1,10.59,5.21,33.38,33.38,0,0,1,7.55,7.55,31.25,31.25,0,0,1,4.51,9.11,33.22,33.22,0,0,1,1.48,9.73q0,10.41-4.25,17.79a36.2,36.2,0,0,1-11.2,12.07,48.66,48.66,0,0,1-15.8,6.85,75.37,75.37,0,0,1-18,2.17,74.58,74.58,0,0,1-20-2.6,46.78,46.78,0,0,1-16.32-8A39,39,0,0,1,631,181.5a45.83,45.83,0,0,1-4.34-19.88Z"/><path class="cls-2" d="M114.22,79h54.64q13.17,0,21.51,3.82A33.87,33.87,0,0,1,203.2,92.4a32.34,32.34,0,0,1,6.16,12.49A53,53,0,0,1,211,117.38a51.93,51.93,0,0,1-1.65,12.4,32.46,32.46,0,0,1-6.16,12.4,33.21,33.21,0,0,1-12.83,9.45q-8.33,3.74-21.51,3.73h-33v47.53H114.22Zm21.68,58.63h31.74a28.42,28.42,0,0,0,7.46-1,21.56,21.56,0,0,0,7-3.38,17.53,17.53,0,0,0,5.2-6.25,21.43,21.43,0,0,0,2-9.8,25.48,25.48,0,0,0-1.73-10.06,16.14,16.14,0,0,0-4.68-6.33,16.77,16.77,0,0,0-6.77-3.21,36.57,36.57,0,0,0-8.15-.87H135.9Z"/></svg>